<?xml version="1.0" encoding="UTF-8" standalone="no"?>
<svg
     xmlns:dc="http://purl.org/dc/elements/1.1/"
     xmlns:cc="http://creativecommons.org/ns#"
     xmlns:rdf="http://www.w3.org/1999/02/22-rdf-syntax-ns#"
     xmlns:svg="http://www.w3.org/2000/svg"
     xmlns="http://www.w3.org/2000/svg"
     id="svg8"
     version="1.1"
     viewBox="0 0 507.99999 285.75001"
     height="1080"
     width="1920">
    <defs
         id="defs2">
        <rect
             x="1.9644311"
             y="193.07551"
             width="52.19774"
             height="11.505953"
             id="rect882" />
        <rect
             x="20.72155"
             y="31.447999"
             width="107.58569"
             height="13.553329"
             id="rect832" />
        <rect
             x="20.72155"
             y="31.447998"
             width="108.27522"
             height="13.208569"
             id="rect832-2" />
        <rect
             x="20.72155"
             y="31.447998"
             width="327.88806"
             height="62.16465"
             id="rect845" />
        <rect
             x="20.72155"
             y="31.447998"
             width="67.56347"
             height="14.122755"
             id="rect832-2-6" />
        <rect
             x="20.72155"
             y="31.447998"
             width="108.27522"
             height="13.208569"
             id="rect874" />
        <rect
             x="20.72155"
             y="31.447998"
             width="67.563469"
             height="14.122755"
             id="rect832-2-6-8" />
        <rect
             x="20.72155"
             y="31.447998"
             width="67.563469"
             height="14.122755"
             id="rect904" />
        <rect
             x="20.72155"
             y="31.447998"
             width="67.563469"
             height="14.122755"
             id="rect832-2-6-8-8" />
        <rect
             x="20.72155"
             y="31.447998"
             width="67.563469"
             height="14.122755"
             id="rect934" />
        <rect
             x="20.72155"
             y="31.447998"
             width="67.563469"
             height="14.122755"
             id="rect832-2-6-8-8-9" />
        <rect
             x="20.72155"
             y="31.447998"
             width="67.563469"
             height="14.122755"
             id="rect964" />
        <rect
             x="20.72155"
             y="31.447998"
             width="67.563469"
             height="14.122755"
             id="rect832-2-6-8-8-91" />
        <rect
             x="20.72155"
             y="31.447998"
             width="67.563469"
             height="14.122755"
             id="rect994" />
        <rect
             x="20.72155"
             y="31.447998"
             width="67.563469"
             height="14.122755"
             id="rect832-2-6-8-8-9-1" />
        <rect
             x="20.72155"
             y="31.447998"
             width="67.563469"
             height="14.122755"
             id="rect1024" />
        <rect
             x="20.72155"
             y="31.447998"
             width="83.531251"
             height="14.488429"
             id="rect832-2-6-8-8-9-1-0" />
        <rect
             x="20.72155"
             y="31.447998"
             width="67.563469"
             height="14.122755"
             id="rect1054" />
        <rect
             x="20.72155"
             y="31.447998"
             width="83.53125"
             height="14.488429"
             id="rect832-2-6-8-8-9-1-0-7" />
        <rect
             x="20.72155"
             y="31.447998"
             width="83.53125"
             height="14.488429"
             id="rect1084" />
    </defs>
    <metadata
         id="metadata5">
        <rdf:RDF>
            <cc:Work
                 rdf:about="">
                <dc:format>image/svg+xml</dc:format>
                <dc:type
                     rdf:resource="http://purl.org/dc/dcmitype/StillImage" />
                <dc:title></dc:title>
            </cc:Work>
        </rdf:RDF>
    </metadata>
    <g
         id="layer1">
        <path
             id="path926"
             style="font-style:normal;font-variant:normal;font-weight:normal;font-stretch:normal;font-size:10.5833px;line-height:1.25;font-family:Bahnschrift;-inkscape-font-specification:'Bahnschrift, Normal';font-variant-ligatures:normal;font-variant-caps:normal;font-variant-numeric:normal;font-variant-east-asian:normal;letter-spacing:-0.428625px;word-spacing:0px;stroke-width:0.999999"
             d="m 21.650391,8.6132812 c -1.96614,0 -3.697922,0.4427113 -5.195313,1.328125 -1.48437,0.8723928 -2.636721,2.1093798 -3.457031,3.7109378 -0.82031,1.601557 -1.230469,3.457038 -1.230469,5.566406 v 7.792969 c 0,2.109368 0.410159,3.964849 1.230469,5.566406 0.82031,1.601557 1.972661,2.838544 3.457031,3.710937 1.497391,0.872394 3.229173,1.308594 5.195313,1.308594 1.614578,0 3.105473,-0.345054 4.472656,-1.035156 1.367183,-0.703123 2.513024,-1.692712 3.4375,-2.96875 0.924476,-1.276038 1.54948,-2.753911 1.875,-4.433594 h -4.082031 c -0.247395,0.950518 -0.664065,1.770836 -1.25,2.460938 -0.572915,0.690102 -1.250003,1.210938 -2.03125,1.5625 -0.768227,0.351561 -1.575524,0.527344 -2.421875,0.527344 -1.158851,0 -2.174482,-0.27344 -3.046875,-0.820313 -0.872393,-0.559894 -1.549481,-1.347659 -2.03125,-2.363281 -0.48177,-1.015622 -0.722657,-2.187505 -0.722657,-3.515625 V 19.21875 c 0,-1.341142 0.240887,-2.513024 0.722657,-3.515625 0.481769,-1.015622 1.158857,-1.803387 2.03125,-2.363281 C 19.475909,12.77995 20.49154,12.5 21.650391,12.5 c 0.83333,0 1.640627,0.188803 2.421875,0.566406 0.781247,0.377603 1.458335,0.917971 2.03125,1.621094 0.585935,0.690102 1.002605,1.477867 1.25,2.363281 h 4.082031 c -0.32552,-1.679682 -0.950524,-3.157556 -1.875,-4.433593 C 28.649091,11.34115 27.509761,10.358071 26.142578,9.6679688 24.775395,8.9648461 23.277989,8.6132812 21.650391,8.6132812 Z M 35.089844,8.90625 v 23.125 c 0,1.705724 0.410159,3.027347 1.230468,3.964844 0.833331,0.937497 2.005213,1.40625 3.515626,1.40625 h 2.34375 v -3.789063 h -1.875 c -0.390622,0 -0.696602,-0.130208 -0.917969,-0.390625 -0.208328,-0.273436 -0.3125,-0.657553 -0.3125,-1.152344 V 8.90625 Z m 48.441406,0 v 28.398438 h 3.984375 V 31.5 l 3.572266,-4.023438 5.939453,9.828126 h 4.335936 l -7.785155,-12.63086 6.789065,-7.642578 h -4.687502 l -8.164063,9.845703 V 8.90625 Z m -30.705078,7.832031 c -1.757808,0 -3.261723,0.345055 -4.511719,1.035157 -1.249995,0.677081 -2.207033,1.673181 -2.871094,2.988281 -0.651038,1.302079 -0.976562,2.871099 -0.976562,4.707031 v 3.300781 c 0,1.861973 0.325524,3.457036 0.976562,4.785157 0.664061,1.315099 1.621099,2.31771 2.871094,3.007812 1.249996,0.690102 2.753911,1.035156 4.511719,1.035156 1.757808,0 3.261723,-0.345054 4.511719,-1.035156 1.249995,-0.690102 2.200523,-1.686202 2.851562,-2.988281 0.664061,-1.3151 0.996094,-2.897142 0.996094,-4.746094 V 25.46875 c 0,-1.835932 -0.332033,-3.404952 -0.996094,-4.707031 -0.651039,-1.3151 -1.601567,-2.3112 -2.851562,-2.988281 -1.249996,-0.690102 -2.753911,-1.035157 -4.511719,-1.035157 z m 20.585937,0 c -1.848952,0 -3.430992,0.345055 -4.746093,1.035157 -1.302078,0.677081 -2.298178,1.66667 -2.988282,2.96875 -0.690101,1.302079 -1.035156,2.871099 -1.035156,4.707031 v 3.339843 c 0,1.861974 0.345055,3.450526 1.035156,4.765626 0.690104,1.315099 1.686204,2.31771 2.988282,3.007812 1.315101,0.690102 2.897141,1.035156 4.746093,1.035156 1.041663,10e-7 2.024744,-0.123698 2.949219,-0.371094 0.937497,-0.247395 1.777346,-0.60547 2.519531,-1.074218 0.742186,-0.48177 1.367191,-1.0612 1.875,-1.738282 l -2.871093,-2.773437 c -0.559895,0.690102 -1.223961,1.22396 -1.992188,1.601563 -0.768227,0.377603 -1.575525,0.566406 -2.421875,0.566406 -1.549475,0 -2.747398,-0.436201 -3.59375,-1.308594 -0.83333,-0.872393 -1.25,-2.10938 -1.25,-3.710938 v -3.339843 c 0,-1.562495 0.423179,-2.773441 1.269531,-3.632813 0.846352,-0.859372 2.037766,-1.289062 3.574219,-1.289062 0.833331,0 1.634117,0.175782 2.402344,0.527344 0.768227,0.351561 1.438805,0.852866 2.011719,1.503906 l 2.871093,-2.578125 c -0.494788,-0.690102 -1.113283,-1.276043 -1.855468,-1.757813 -0.742186,-0.481769 -1.582035,-0.846354 -2.519532,-1.09375 -0.924477,-0.260415 -1.914067,-0.390625 -2.96875,-0.390625 z m -20.585937,3.789063 c 1.393224,0 2.467451,0.42969 3.222656,1.289062 0.768227,0.859372 1.152344,2.076828 1.152344,3.652344 v 3.359375 c 0,1.575516 -0.384117,2.799482 -1.152344,3.671875 -0.755205,0.872393 -1.829432,1.308594 -3.222656,1.308594 -1.393225,0 -2.473961,-0.436201 -3.242188,-1.308594 -0.755205,-0.872393 -1.132812,-2.096359 -1.132812,-3.671875 V 25.46875 c 0,-1.575516 0.377607,-2.792972 1.132812,-3.652344 0.768227,-0.859372 1.848963,-1.289062 3.242188,-1.289062 z"
             transform="scale(0.26458334)" />
    </g>
</svg>
